<svg width="40" height="16" viewBox="0 0 40 16" fill="none" xmlns="http://www.w3.org/2000/svg">
<path d="M18.917 7.81705V12.5131H17.4398V0.920314H21.358C21.8264 0.909828 22.2922 0.9931 22.7284 1.16531C23.1647 1.33752 23.5627 1.59524 23.8995 1.92355C24.2345 2.23712 24.5017 2.61696 24.6844 3.03933C24.8671 3.4617 24.9614 3.91752 24.9614 4.37829C24.9614 4.83906 24.8671 5.29487 24.6844 5.71724C24.5017 6.13961 24.2345 6.51945 23.8995 6.83302C23.5617 7.15875 23.1631 7.41365 22.7268 7.58293C22.2905 7.75222 21.8253 7.83252 21.358 7.81918H18.9223L18.917 7.81705ZM18.917 2.34726V6.39224H21.394C21.794 6.4056 22.1887 6.29701 22.5265 6.08065C22.8643 5.8643 23.1295 5.55026 23.2873 5.17958C23.4452 4.8089 23.4884 4.39884 23.4114 4.00301C23.3343 3.60718 23.1405 3.244 22.8553 2.96095C22.6689 2.75996 22.4422 2.6012 22.1902 2.49522C21.9383 2.38924 21.6669 2.33844 21.394 2.34619H18.917V2.34726Z" fill="#5F6368"/>
<path d="M28.3577 4.32183C29.3 4.26945 30.226 4.58563 30.9427 5.20446C31.2633 5.51555 31.5139 5.89254 31.6772 6.30983C31.8406 6.72712 31.9129 7.17495 31.8894 7.62291V12.51H30.4767V11.4096H30.4121C30.1575 11.8292 29.7992 12.1751 29.3723 12.4134C28.9454 12.6517 28.4645 12.7744 27.9765 12.7693C27.1805 12.7943 26.4041 12.517 25.8014 11.9923C25.5213 11.7548 25.2974 11.4572 25.1459 11.1214C24.9944 10.7855 24.9191 10.4198 24.9256 10.051C24.9127 9.67401 24.9899 9.29945 25.1506 8.95882C25.3113 8.61818 25.5508 8.32144 25.849 8.09358C26.5653 7.57734 27.4338 7.32044 28.3132 7.36463C29.0649 7.3355 29.8113 7.50279 30.4799 7.85024V7.50978C30.4816 7.25822 30.4278 7.00943 30.3223 6.78145C30.2168 6.55346 30.0623 6.35201 29.8699 6.1917C29.4795 5.8364 28.9706 5.64243 28.4446 5.64845C28.0558 5.63924 27.6712 5.73125 27.328 5.9156C26.9848 6.09994 26.6946 6.37038 26.4855 6.70079L25.184 5.87472C25.5377 5.36459 26.015 4.95412 26.5705 4.68232C27.126 4.41052 27.7412 4.28642 28.3577 4.32183ZM26.4516 10.0851C26.4506 10.2747 26.4945 10.4617 26.5798 10.6307C26.6651 10.7996 26.7892 10.9456 26.9419 11.0563C27.2685 11.3155 27.6741 11.4528 28.0898 11.4448C28.7109 11.4411 29.3055 11.1902 29.7439 10.7468C29.9745 10.5427 30.1592 10.2914 30.2857 10.0096C30.4123 9.72785 30.4778 9.42212 30.4778 9.11283C29.9172 8.7121 29.2376 8.51631 28.5515 8.55785C28.0178 8.53821 27.4919 8.69158 27.051 8.99543C26.8681 9.11142 26.717 9.27171 26.6113 9.46168C26.5057 9.65164 26.449 9.86524 26.4463 10.083L26.4516 10.0851Z" fill="#5F6368"/>
<path d="M40 4.58032L35.0673 16.0002H33.5424L35.3723 12.0032L32.1298 4.58032H33.7351L36.0797 10.2764H36.1115L38.3914 4.58032H40Z" fill="#5F6368"/>
<path d="M12.9477 6.80423C12.9484 6.3507 12.9105 5.89794 12.8344 5.45093H6.60449V8.01239H10.1721C10.0997 8.42275 9.94538 8.81403 9.71859 9.16257C9.4918 9.51112 9.19722 9.80968 8.85268 10.0402V11.7041H10.9823C11.6316 11.0713 12.142 10.3082 12.4805 9.46421C12.819 8.62022 12.9782 7.71406 12.9477 6.80423Z" fill="#4285F4"/>
<path d="M6.60446 13.3106C8.21354 13.3561 9.77922 12.7812 10.9822 11.7033L8.85265 10.0394C8.34003 10.37 7.75942 10.5785 7.1549 10.6491C6.55038 10.7198 5.93784 10.6507 5.36378 10.4471C4.78971 10.2435 4.26921 9.91074 3.8418 9.47413C3.41438 9.03752 3.09128 8.50851 2.89703 7.92725H0.70285V9.64236C1.25262 10.7449 2.09562 11.6718 3.13774 12.3196C4.17986 12.9673 5.38009 13.3104 6.60446 13.3106Z" fill="#34A853"/>
<path d="M2.89597 7.92807C2.61947 7.10137 2.61947 6.20612 2.89597 5.37942V3.66431H0.702852C0.240687 4.59161 0 5.61496 0 6.65268C0 7.6904 0.240687 8.71375 0.702852 9.64105L2.89597 7.92807Z" fill="#FBBC04"/>
<path d="M6.60449 2.63131C7.54659 2.61591 8.45687 2.97475 9.13859 3.63028L11.0235 1.73053C9.82751 0.600283 8.24392 -0.0196877 6.60449 0.000476907C5.38049 -6.36417e-05 4.18042 0.342145 3.13814 0.988923C2.09587 1.6357 1.25239 2.56162 0.701813 3.66337L2.89599 5.37954C3.15173 4.58838 3.64696 3.89784 4.31212 3.40491C4.97728 2.91199 5.77893 2.64145 6.60449 2.63131Z" fill="#EA4335"/>
</svg>
