<svg width="74" height="20" viewBox="0 0 74 20" fill="none" xmlns="http://www.w3.org/2000/svg">
<path d="M5.84891 16.6329C6.40355 16.6329 6.85735 16.5907 7.2103 16.5063C7.58006 16.4051 7.87418 16.2785 8.09268 16.1266C8.31117 15.9578 8.46244 15.7637 8.54647 15.5443C8.63051 15.3249 8.67253 15.0802 8.67253 14.8101C8.67253 14.2363 8.40361 13.7637 7.86578 13.3924C7.32795 13.0042 6.40355 12.5907 5.09259 12.1519C4.52114 11.9494 3.9497 11.7215 3.37825 11.4684C2.80681 11.1983 2.29419 10.8692 1.84039 10.481C1.3866 10.0759 1.01684 9.59494 0.731114 9.03797C0.445391 8.46413 0.30253 7.77215 0.30253 6.96202C0.30253 6.1519 0.453795 5.42616 0.756325 4.78481C1.05885 4.12658 1.48744 3.56962 2.04208 3.11392C2.59672 2.65823 3.269 2.31224 4.05894 2.07595C4.84888 1.82278 5.73967 1.6962 6.73129 1.6962C7.9078 1.6962 8.92463 1.82278 9.7818 2.07595C10.639 2.32911 11.3449 2.60759 11.8995 2.91139L10.765 6.02532C10.2776 5.77215 9.73138 5.55274 9.12632 5.36709C8.53807 5.16456 7.82376 5.06329 6.9834 5.06329C6.0422 5.06329 5.3615 5.19831 4.94132 5.46835C4.53795 5.72152 4.33626 6.11814 4.33626 6.65823C4.33626 6.9789 4.4119 7.24894 4.56316 7.46835C4.71443 7.68776 4.92452 7.8903 5.19343 8.07595C5.47915 8.24473 5.79849 8.40506 6.15144 8.55696C6.5212 8.69198 6.92458 8.83544 7.36156 8.98734C8.26915 9.32489 9.05909 9.66245 9.73138 10C10.4037 10.3207 10.9583 10.7004 11.3953 11.1392C11.8491 11.5781 12.1852 12.0928 12.4037 12.6835C12.6222 13.2743 12.7315 13.9916 12.7315 14.8354C12.7315 16.4726 12.16 17.7468 11.0171 18.6582C9.87424 19.5527 8.1515 20 5.84891 20C5.07578 20 4.37828 19.9494 3.75641 19.8481C3.13455 19.7637 2.57991 19.654 2.0925 19.519C1.6219 19.384 1.21012 19.2405 0.857168 19.0886C0.521024 18.9367 0.235301 18.7932 0 18.6582L1.10928 15.519C1.6303 15.8059 2.26898 16.0675 3.0253 16.3038C3.79843 16.5232 4.73964 16.6329 5.84891 16.6329Z" fill="white"/>
<path d="M14.4097 3.01266L18.1662 2.40506V6.32911H22.6789V9.46835H18.1662V14.1519C18.1662 14.9451 18.3006 15.5781 18.5695 16.0506C18.8553 16.5232 19.4183 16.7595 20.2587 16.7595C20.662 16.7595 21.0738 16.7257 21.494 16.6582C21.931 16.5738 22.3259 16.4641 22.6789 16.3291L23.2083 19.2658C22.7545 19.4515 22.2503 19.6118 21.6957 19.7468C21.141 19.8819 20.4603 19.9494 19.6536 19.9494C18.6284 19.9494 17.7796 19.8143 17.1073 19.5443C16.435 19.2574 15.8972 18.8692 15.4938 18.3797C15.0904 17.8734 14.8047 17.2658 14.6366 16.557C14.4854 15.8481 14.4097 15.0633 14.4097 14.2025V3.01266Z" fill="white"/>
<path d="M23.6456 13.0886C23.6456 11.9072 23.822 10.8776 24.175 10C24.5447 9.10548 25.0238 8.36287 25.612 7.77215C26.2003 7.18143 26.8725 6.73418 27.6289 6.43038C28.402 6.12658 29.1919 5.97468 29.9987 5.97468C31.8811 5.97468 33.3685 6.55696 34.461 7.72152C35.5535 8.8692 36.0997 10.5654 36.0997 12.8101C36.0997 13.0295 36.0913 13.2743 36.0745 13.5443C36.0577 13.7975 36.0409 14.0253 36.0241 14.2278H27.5028C27.5869 15.0042 27.9482 15.6203 28.5869 16.0759C29.2256 16.5316 30.0827 16.7595 31.1584 16.7595C31.8475 16.7595 32.5198 16.7004 33.1753 16.5823C33.8475 16.4473 34.3938 16.2869 34.814 16.1013L35.3182 19.1646C35.1165 19.2658 34.8476 19.3671 34.5114 19.4684C34.1753 19.5696 33.7971 19.654 33.3769 19.7215C32.9736 19.8059 32.5366 19.8734 32.066 19.924C31.5954 19.9747 31.1248 20 30.6542 20C29.4609 20 28.4188 19.8228 27.528 19.4684C26.6541 19.1139 25.9229 18.6329 25.3347 18.0253C24.7632 17.4008 24.3347 16.6667 24.0489 15.8228C23.78 14.9789 23.6456 14.0675 23.6456 13.0886ZM32.4694 11.6456C32.4525 11.3249 32.3937 11.0127 32.2929 10.7089C32.2088 10.4051 32.066 10.135 31.8643 9.89873C31.6794 9.66245 31.4357 9.46835 31.1332 9.31645C30.8475 9.16456 30.4861 9.08861 30.0491 9.08861C29.6289 9.08861 29.2676 9.16456 28.965 9.31645C28.6625 9.45148 28.4104 9.63713 28.2087 9.87342C28.007 10.1097 27.8474 10.3882 27.7297 10.7089C27.6289 11.0127 27.5532 11.3249 27.5028 11.6456H32.4694Z" fill="white"/>
<path d="M43.3232 19.8987C42.2307 19.8819 41.3399 19.7637 40.6508 19.5443C39.9786 19.3249 39.4407 19.0211 39.0373 18.6329C38.6508 18.2278 38.3819 17.7468 38.2306 17.1899C38.0961 16.616 38.0289 15.9747 38.0289 15.2658V0.607594L41.7853 0V14.5063C41.7853 14.8439 41.8105 15.1477 41.861 15.4177C41.9114 15.6878 42.0038 15.9156 42.1383 16.1013C42.2895 16.2869 42.4996 16.4388 42.7686 16.557C43.0375 16.6751 43.3988 16.7511 43.8526 16.7848L43.3232 19.8987Z" fill="white"/>
<path d="M50.3304 19.8987C49.2379 19.8819 48.3472 19.7637 47.6581 19.5443C46.9858 19.3249 46.4479 19.0211 46.0446 18.6329C45.658 18.2278 45.3891 17.7468 45.2378 17.1899C45.1034 16.616 45.0361 15.9747 45.0361 15.2658V0.607594L48.7925 0V14.5063C48.7925 14.8439 48.8178 15.1477 48.8682 15.4177C48.9186 15.6878 49.011 15.9156 49.1455 16.1013C49.2968 16.2869 49.5069 16.4388 49.7758 16.557C50.0447 16.6751 50.406 16.7511 50.8598 16.7848L50.3304 19.8987Z" fill="white"/>
<path d="M57.48 17.0127C57.8498 17.0127 58.2027 17.0042 58.5389 16.9873C58.875 16.9705 59.1439 16.9451 59.3456 16.9114V14.0506C59.1944 14.0169 58.9675 13.9831 58.6649 13.9494C58.3624 13.9156 58.0851 13.8987 57.833 13.8987C57.48 13.8987 57.1439 13.9241 56.8245 13.9747C56.522 14.0084 56.2531 14.0844 56.0178 14.2025C55.7825 14.3207 55.5976 14.481 55.4632 14.6835C55.3287 14.8861 55.2615 15.1392 55.2615 15.443C55.2615 16.0338 55.4548 16.4473 55.8413 16.6835C56.2447 16.903 56.7909 17.0127 57.48 17.0127ZM57.1775 5.97468C58.2868 5.97468 59.2112 6.10127 59.9507 6.35443C60.6902 6.60759 61.2785 6.97046 61.7154 7.44304C62.1692 7.91561 62.4886 8.48945 62.6735 9.16456C62.8583 9.83966 62.9508 10.5907 62.9508 11.4177V19.2658C62.413 19.384 61.665 19.519 60.707 19.6709C59.749 19.8397 58.5893 19.924 57.2279 19.924C56.3708 19.924 55.5892 19.8481 54.8833 19.6962C54.1942 19.5443 53.5976 19.2996 53.0933 18.962C52.5891 18.6076 52.2026 18.1519 51.9336 17.5949C51.6647 17.038 51.5303 16.3544 51.5303 15.5443C51.5303 14.7679 51.6815 14.1097 51.9841 13.5696C52.3034 13.0295 52.7236 12.5992 53.2446 12.2785C53.7656 11.9578 54.3623 11.73 55.0346 11.5949C55.7069 11.443 56.4044 11.3671 57.1271 11.3671C57.6145 11.3671 58.0431 11.3924 58.4128 11.443C58.7994 11.4768 59.1103 11.5274 59.3456 11.5949V11.2405C59.3456 10.5992 59.1523 10.0844 58.7658 9.6962C58.3792 9.30802 57.7069 9.11392 56.7489 9.11392C56.1102 9.11392 55.48 9.16456 54.8581 9.26582C54.2362 9.35021 53.6984 9.47679 53.2446 9.64557L52.7656 6.60759C52.9841 6.54008 53.253 6.47257 53.5723 6.40506C53.9085 6.32068 54.2698 6.25316 54.6564 6.20253C55.043 6.13502 55.4464 6.08439 55.8665 6.05063C56.3035 6 56.7405 5.97468 57.1775 5.97468Z" fill="white"/>
<path d="M73.3697 9.67089C73.0336 9.5865 72.6386 9.50211 72.1848 9.41772C71.731 9.31645 71.2436 9.26582 70.7226 9.26582C70.4873 9.26582 70.2016 9.29114 69.8654 9.34177C69.5461 9.37553 69.3024 9.41772 69.1343 9.46835V19.6456H65.3779V7.03797C66.0502 6.80169 66.8401 6.58228 67.7477 6.37975C68.6721 6.16034 69.6973 6.05063 70.8234 6.05063C71.0251 6.05063 71.2688 6.06751 71.5546 6.10126C71.8403 6.11814 72.126 6.1519 72.4117 6.20253C72.6974 6.23629 72.9832 6.28692 73.2689 6.35443C73.5546 6.40506 73.7983 6.47257 74 6.55696L73.3697 9.67089Z" fill="white"/>
</svg>
