<svg width="64" height="16" viewBox="0 0 64 16" fill="none" xmlns="http://www.w3.org/2000/svg">
<path d="M23.9332 3.59991H20.3931C20.2755 3.60007 20.1618 3.64325 20.0727 3.72163C19.9835 3.80001 19.9248 3.90842 19.9071 4.02725L18.4751 13.3089C18.4685 13.3519 18.471 13.396 18.4826 13.4379C18.4942 13.4798 18.5146 13.5187 18.5423 13.5518C18.57 13.5849 18.6045 13.6115 18.6432 13.6297C18.6819 13.6479 18.7241 13.6572 18.7667 13.6572H20.4558C20.5734 13.657 20.687 13.6138 20.7762 13.5355C20.8653 13.4571 20.9241 13.3487 20.9418 13.2298L21.3285 10.7267C21.3463 10.6079 21.405 10.4995 21.4942 10.4211C21.5833 10.3427 21.697 10.2996 21.8146 10.2994H22.9361C23.4236 10.3548 23.917 10.3088 24.3867 10.1642C24.8564 10.0196 25.2926 9.77936 25.6691 9.45801C26.0456 9.13665 26.3546 8.74078 26.5776 8.2942C26.8005 7.84763 26.9328 7.35957 26.9665 6.85939C27.0646 6.46003 27.0751 6.04339 26.997 5.63942C26.9189 5.23544 26.7543 4.85416 26.5149 4.52295C26.1748 4.18838 25.7682 3.93265 25.3227 3.77318C24.8771 3.61372 24.4032 3.55425 23.9332 3.59885V3.59991ZM24.3419 6.98973C24.1485 8.28882 23.1775 8.28882 22.2389 8.28882H21.7048L22.0801 5.86371C22.091 5.79275 22.1264 5.72813 22.1799 5.68151C22.2334 5.63489 22.3014 5.60933 22.3717 5.60944H22.6163C23.2559 5.60944 23.859 5.60944 24.1705 5.98229C24.2697 6.12726 24.3364 6.29275 24.3661 6.46703C24.3957 6.64132 24.3874 6.82013 24.3419 6.99079V6.98973ZM34.5192 6.94806H32.8228C32.7525 6.94795 32.6845 6.9735 32.631 7.02013C32.5776 7.06675 32.5422 7.13137 32.5312 7.20232L32.4559 7.68735L32.3378 7.51214C32.0804 7.24288 31.7661 7.03741 31.4189 6.91149C31.0718 6.78557 30.7011 6.74253 30.3352 6.78567C29.4 6.80608 28.5032 7.16937 27.8082 7.80928C27.1133 8.4492 26.6665 9.32311 26.5494 10.2716C26.4595 10.7354 26.469 11.2135 26.5773 11.6731C26.6856 12.1327 26.89 12.5628 27.1765 12.9339C27.445 13.2355 27.7764 13.4713 28.1463 13.6239C28.5162 13.7765 28.9149 13.8419 29.313 13.8153C29.7495 13.82 30.1825 13.7346 30.5859 13.564C30.9893 13.3935 31.3548 13.1414 31.6605 12.8228L31.5853 13.3046C31.5785 13.3477 31.5809 13.3917 31.5923 13.4337C31.6038 13.4757 31.624 13.5146 31.6517 13.5478C31.6793 13.5811 31.7137 13.6077 31.7524 13.6261C31.7911 13.6444 31.8332 13.6539 31.8758 13.654H33.4029C33.5205 13.6538 33.6341 13.6106 33.7233 13.5323C33.8124 13.4539 33.8712 13.3455 33.8889 13.2266L34.8056 7.2942C34.8124 7.25122 34.81 7.20723 34.7985 7.16529C34.7871 7.12335 34.7668 7.08447 34.7391 7.05133C34.7115 7.0182 34.6771 6.99161 34.6384 6.97341C34.5997 6.95521 34.5576 6.94583 34.515 6.94592L34.5192 6.94806ZM32.1549 10.3218C32.0889 10.7891 31.8577 11.2154 31.5051 11.5203C31.1525 11.8252 30.7029 11.9875 30.2411 11.9767C30.0291 11.9993 29.8149 11.9688 29.6169 11.8878C29.419 11.8069 29.2433 11.6779 29.1051 11.5121C28.9668 11.3462 28.8701 11.1485 28.8232 10.9359C28.7764 10.7234 28.7809 10.5023 28.8363 10.2919C28.9009 9.82462 29.1299 9.39738 29.4804 9.09021C29.831 8.78304 30.279 8.61701 30.7407 8.6232C30.9517 8.61172 31.1624 8.6481 31.358 8.72974C31.5535 8.81139 31.7289 8.93626 31.8717 9.09541C32.0033 9.26645 32.0969 9.46482 32.1458 9.67665C32.1947 9.88848 32.1978 10.1087 32.1549 10.3218ZM43.5478 6.94806H41.8441C41.7637 6.94826 41.6845 6.9685 41.6135 7.00704C41.5424 7.04557 41.4817 7.10124 41.4364 7.16921L39.0889 10.7054L38.0928 7.30488C38.0622 7.2011 37.9998 7.11015 37.9147 7.04549C37.8296 6.98083 37.7264 6.94592 37.6203 6.94592H35.948C35.9009 6.94568 35.8544 6.95697 35.8125 6.97886C35.7706 7.00074 35.7343 7.03258 35.7069 7.07171C35.6795 7.11084 35.6616 7.15611 35.6548 7.20374C35.648 7.25138 35.6525 7.29998 35.6679 7.34548L37.5493 12.9756L35.7776 15.5236C35.7461 15.5686 35.7273 15.6217 35.7234 15.677C35.7195 15.7323 35.7306 15.7876 35.7554 15.8368C35.7803 15.8861 35.818 15.9274 35.8643 15.9562C35.9106 15.985 35.9638 16.0001 36.018 16H37.7196C37.7989 16.0004 37.8771 15.9812 37.9476 15.944C38.018 15.9068 38.0786 15.8527 38.1241 15.7864L43.7924 7.42347C43.8231 7.37825 43.8412 7.32528 43.8445 7.27031C43.8479 7.21535 43.8365 7.16049 43.8115 7.1117C43.7865 7.06291 43.7489 7.02206 43.7028 6.99358C43.6566 6.96511 43.6038 6.9501 43.5499 6.9502L43.5478 6.94806Z" fill="#253B80"/>
<path d="M49.193 3.59888H45.6507C45.5331 3.59903 45.4195 3.64221 45.3303 3.72059C45.2412 3.79898 45.1824 3.90739 45.1647 4.02621L43.7327 13.3079C43.7261 13.3508 43.7286 13.3947 43.7402 13.4366C43.7517 13.4785 43.772 13.5173 43.7996 13.5504C43.8272 13.5834 43.8615 13.61 43.9001 13.6283C43.9387 13.6466 43.9808 13.6561 44.0233 13.6561H45.8409C45.9229 13.6561 46.0022 13.6262 46.0644 13.5718C46.1267 13.5173 46.1679 13.4419 46.1806 13.3591L46.5872 10.7278C46.605 10.609 46.6637 10.5006 46.7529 10.4222C46.842 10.3438 46.9557 10.3007 47.0733 10.3005H48.1937C48.6814 10.356 49.175 10.3101 49.6449 10.1655C50.1147 10.0209 50.5511 9.78064 50.9278 9.45916C51.3044 9.13768 51.6135 8.74162 51.8364 8.29484C52.0594 7.84807 52.1916 7.35979 52.2251 6.85942C52.3235 6.46007 52.334 6.0434 52.2559 5.63941C52.1778 5.23541 52.0131 4.85412 51.7736 4.52298C51.4337 4.18838 51.0273 3.93262 50.5819 3.77314C50.1366 3.61367 49.6628 3.55423 49.193 3.59888ZM49.6016 6.98869C49.4083 8.28778 48.4373 8.28778 47.4987 8.28778H46.9646L47.3398 5.86267C47.3505 5.7918 47.3857 5.7272 47.439 5.68056C47.4923 5.63392 47.5602 5.60833 47.6303 5.60841H47.8749C48.5136 5.60841 49.1177 5.60841 49.4292 5.98125C49.5283 6.12622 49.5951 6.29171 49.6247 6.466C49.6544 6.64028 49.6461 6.81909 49.6006 6.98976L49.6016 6.98869ZM59.7831 6.94702H58.0836C58.0134 6.94695 57.9455 6.97254 57.8922 7.01918C57.8389 7.06582 57.8037 7.13042 57.793 7.20129L57.7177 7.68631L57.5986 7.5111C57.3412 7.24177 57.0269 7.03627 56.6797 6.91034C56.3326 6.78442 55.9619 6.74142 55.596 6.78464C54.6608 6.80504 53.764 7.16833 53.069 7.80825C52.3741 8.44816 51.9273 9.32207 51.8102 10.2706C51.7204 10.7343 51.73 11.2124 51.8383 11.672C51.9465 12.1316 52.1509 12.5617 52.4373 12.9329C52.7058 13.2344 53.0372 13.4702 53.4071 13.6228C53.777 13.7754 54.1757 13.8408 54.5737 13.8143C55.0103 13.819 55.4432 13.7335 55.8466 13.563C56.2501 13.3924 56.6156 13.1403 56.9213 12.8218L56.846 13.3036C56.8392 13.3467 56.8416 13.3908 56.8532 13.4329C56.8647 13.475 56.885 13.514 56.9128 13.5472C56.9405 13.5804 56.975 13.6071 57.0138 13.6254C57.0527 13.6436 57.0949 13.653 57.1376 13.6529H58.6647C58.7823 13.6528 58.896 13.6096 58.9851 13.5312C59.0743 13.4528 59.133 13.3444 59.1507 13.2256L60.0674 7.29316C60.0739 7.25006 60.0712 7.20603 60.0594 7.16409C60.0477 7.12216 60.0272 7.08332 59.9994 7.05023C59.9716 7.01715 59.9371 6.9906 59.8984 6.97242C59.8596 6.95424 59.8174 6.94484 59.7747 6.94489L59.7831 6.94702ZM57.4146 10.3208C57.3485 10.7886 57.1169 11.2154 56.7636 11.5203C56.4104 11.8253 55.96 11.9873 55.4977 11.9757C55.2857 11.9982 55.0715 11.9677 54.8735 11.8868C54.6756 11.8058 54.4999 11.6769 54.3616 11.511C54.2234 11.3452 54.1266 11.1475 54.0798 10.9349C54.033 10.7223 54.0375 10.5013 54.0929 10.2909C54.1576 9.82442 54.386 9.3979 54.7357 9.09087C55.0853 8.78384 55.5322 8.61725 55.9931 8.62217C56.2041 8.61068 56.4148 8.64707 56.6104 8.72871C56.8059 8.81035 56.9813 8.93522 57.1241 9.09437C57.257 9.26481 57.3519 9.46288 57.4021 9.67474C57.4523 9.88659 57.4566 10.1071 57.4146 10.3208ZM61.7774 3.85421L60.3235 13.3057C60.3168 13.3487 60.3194 13.3926 60.3309 13.4345C60.3425 13.4763 60.3627 13.5151 60.3903 13.5482C60.4179 13.5813 60.4522 13.6079 60.4908 13.6262C60.5295 13.6444 60.5715 13.6539 60.614 13.654H62.0773C62.195 13.6541 62.3088 13.611 62.398 13.5325C62.4872 13.4541 62.5458 13.3456 62.5634 13.2267L63.9964 3.94502C64.003 3.90206 64.0005 3.85814 63.9889 3.81628C63.9774 3.77442 63.9571 3.73562 63.9295 3.70252C63.9019 3.66943 63.8676 3.64284 63.829 3.62458C63.7904 3.60632 63.7483 3.59682 63.7058 3.59674H62.069C61.9988 3.59713 61.931 3.62304 61.8778 3.66981C61.8245 3.71659 61.7893 3.78119 61.7784 3.85207L61.7774 3.85421Z" fill="#179BD7"/>
<path d="M3.76784 15.4574L4.03855 13.6989L3.43546 13.684H0.55484L2.55643 0.711214C2.56244 0.67149 2.58221 0.635293 2.61214 0.609214C2.64206 0.583136 2.68016 0.568909 2.71949 0.569126H7.57661C8.16668 0.497832 8.7648 0.551635 9.33362 0.727176C9.90244 0.902717 10.4298 1.19623 10.8826 1.58938C11.1396 1.87699 11.3219 2.22597 11.4126 2.6043C11.5006 3.06646 11.5006 3.54164 11.4126 4.00381L11.4063 4.0444V4.4023L11.6791 4.56041C11.887 4.66731 12.074 4.81213 12.231 4.98774C12.4728 5.27896 12.628 5.63484 12.6783 6.01334C12.7416 6.50974 12.7204 7.01359 12.6156 7.50259C12.5128 8.09503 12.3109 8.66494 12.0188 9.18735C11.7807 9.60328 11.4603 9.96387 11.0781 10.2461C10.6924 10.5196 10.2609 10.7184 9.80501 10.8326C9.28463 10.9636 8.75011 11.0268 8.21419 11.0206H7.83478C7.56373 11.0203 7.30147 11.1189 7.09526 11.2987C6.88906 11.4785 6.75248 11.7277 6.71012 12.0013L6.6819 12.1594L6.20319 15.2576L6.18124 15.3719C6.17985 15.3972 6.169 15.4209 6.15093 15.4381C6.13671 15.4498 6.11902 15.4562 6.10076 15.4563H3.76784V15.4574Z" fill="#253B80"/>
<path d="M11.9394 4.08496C11.9247 4.17969 11.908 4.27655 11.8892 4.37555C11.2485 7.73651 9.05769 8.89779 6.25859 8.89779H4.83396C4.66879 8.89785 4.50909 8.95831 4.38372 9.06823C4.25835 9.17814 4.17559 9.33028 4.15039 9.49712L3.41874 14.2266L3.2097 15.5674C3.20205 15.6203 3.20562 15.6742 3.22017 15.7255C3.23471 15.7769 3.25989 15.8244 3.29399 15.865C3.32809 15.9055 3.37032 15.9381 3.41781 15.9604C3.46531 15.9828 3.51695 15.9945 3.56925 15.9947H6.10077C6.24549 15.9948 6.3855 15.9421 6.49566 15.8462C6.60581 15.7502 6.67889 15.6173 6.70177 15.4712L6.72685 15.3398L7.20243 12.2534L7.23274 12.0836C7.25539 11.9373 7.32837 11.8041 7.43855 11.7079C7.54872 11.6118 7.68886 11.559 7.83374 11.559H8.21211C10.6611 11.559 12.578 10.543 13.1382 7.60618C13.2857 7.10372 13.3165 6.573 13.2279 6.05628C13.1393 5.53955 12.934 5.0511 12.6281 4.62981C12.4318 4.40674 12.1973 4.22211 11.9362 4.08496H11.9394Z" fill="#179BD7"/>
<path d="M11.2694 3.81234C11.0635 3.75179 10.854 3.70469 10.6422 3.67132C10.2273 3.60603 9.80785 3.57459 9.38799 3.57731H5.5834C5.43797 3.57688 5.29722 3.6298 5.18674 3.72645C5.07626 3.8231 5.00338 3.95707 4.98135 4.104L4.17131 9.34736L4.14832 9.50014C4.17352 9.33329 4.25628 9.18116 4.38165 9.07124C4.50701 8.96132 4.66671 8.90087 4.83189 8.9008H6.25652C9.05561 8.9008 11.2464 7.73953 11.8871 4.37856C11.9059 4.2792 11.9226 4.18199 11.9373 4.08797C11.7696 3.99742 11.5947 3.9213 11.4147 3.86042L11.2715 3.81448L11.2694 3.81234Z" fill="#222D65"/>
<path d="M4.98342 4.102C5.00544 3.95564 5.0781 3.82221 5.18819 3.72596C5.29828 3.6297 5.4385 3.57701 5.58338 3.57745H9.39006C9.80992 3.57473 10.2293 3.60617 10.6443 3.67146C10.9044 3.71325 11.1609 3.77576 11.4115 3.85842C11.5915 3.91953 11.7663 3.99563 11.9341 4.08597C12.0568 3.59126 12.061 3.07361 11.9464 2.57688C11.8318 2.08015 11.6017 1.61899 11.2756 1.23246C10.7743 0.780746 10.1867 0.440385 9.54991 0.232944C8.91317 0.0255028 8.24121 -0.044495 7.57661 0.0273853H2.72262C2.5572 0.0273758 2.39722 0.0877542 2.27151 0.19764C2.1458 0.307526 2.06261 0.459693 2.03696 0.626719L0.0050531 13.7341C-0.0042908 13.7949 -0.000646006 13.8572 0.0157376 13.9164C0.0321212 13.9757 0.0608561 14.0307 0.0999722 14.0776C0.139088 14.1245 0.187661 14.1622 0.242359 14.1881C0.297057 14.214 0.356587 14.2275 0.416869 14.2276H3.42082L4.17338 9.34536L4.98342 4.102Z" fill="#253B80"/>
</svg>
