<svg width="48" height="16" viewBox="0 0 48 16" fill="none" xmlns="http://www.w3.org/2000/svg">
<path d="M20.8018 15.765H16.9131L19.3451 0.28125H23.2348L20.8018 15.765Z" fill="#00579F"/>
<path d="M34.8979 0.659239C33.7855 0.218084 32.6028 -0.00545761 31.4107 0.000101177C27.5718 0.000101177 24.8669 2.1089 24.8503 5.12788C24.8181 7.35206 26.7863 8.587 28.2586 9.32839C29.7631 10.0858 30.2746 10.5804 30.2746 11.2513C30.2591 12.2886 29.0586 12.7672 27.9391 12.7672C26.676 12.8034 25.4235 12.5206 24.2911 11.9436L23.7744 11.7L23.2307 15.1762C24.6135 15.7281 26.0846 16.0075 27.5677 15.9998C31.6473 15.9998 34.3045 13.9242 34.3356 10.7118C34.3511 8.94914 33.3115 7.59883 31.0714 6.49529C29.7112 5.78702 28.8781 5.30949 28.8781 4.58412C28.8936 3.92499 29.5826 3.24983 31.1181 3.24983C32.1148 3.21987 33.1052 3.42256 34.015 3.84273L34.3667 4.00725L34.8958 0.66351L34.8979 0.659239Z" fill="#00579F"/>
<path d="M40.0659 10.2793C40.3865 9.38944 41.6222 5.94742 41.6222 5.94742C41.6056 5.98054 41.9418 5.04151 42.1337 4.46464L42.4056 5.79893C42.4056 5.79893 43.1423 9.50482 43.302 10.2793H40.0659ZM44.8656 0.281223H41.8567C41.4272 0.227572 40.9926 0.32502 40.6236 0.557741C40.2546 0.790462 39.9729 1.14479 39.8241 1.56317L34.0482 15.7618H38.1278L38.9433 13.4393H43.9359C44.048 13.9831 44.3997 15.7618 44.3997 15.7618H48L44.8635 0.27802L44.8656 0.281223Z" fill="#00579F"/>
<path d="M13.6645 0.28125L9.85668 10.8402L9.44167 8.70363C8.49391 5.92824 6.57748 3.615 4.06509 2.21379L7.55333 15.7543H11.6651L17.7773 0.286597L13.6645 0.28125Z" fill="#00579F"/>
<path d="M6.32074 0.280996H0.0643242L0 0.594004C4.87647 1.87595 8.11258 4.97399 9.44167 8.69911L8.08145 1.58324C7.99806 1.17891 7.7709 0.821278 7.44456 0.580539C7.11822 0.3398 6.71627 0.233339 6.31762 0.282064L6.32074 0.280996Z" fill="#FAA61A"/>
</svg>
